<svg version="1.1" viewBox="0.0 0.0 960.0 720.0" fill="none" stroke="none" stroke-linecap="square" stroke-miterlimit="10" xmlns:xlink="http://www.w3.org/1999/xlink" xmlns="http://www.w3.org/2000/svg"><clipPath id="p.0"><path d="m0 0l960.0 0l0 720.0l-960.0 0l0 -720.0z" clip-rule="nonzero"/></clipPath><g clip-path="url(#p.0)"><path fill="#000000" fill-opacity="0.0" d="m0 0l960.0 0l0 720.0l-960.0 0z" fill-rule="evenodd"/><path fill="#ffffff" d="m164.26582 230.41573l0 0c-13.323486 -33.578293 3.0940247 -71.60538 36.669556 -84.93585l243.16817 -96.54497l0 0c16.123535 -6.40152 34.128357 -6.135273 50.05362 0.74017334c15.925232 6.8754425 28.46637 19.796886 34.864563 35.921757l167.34192 421.74078c13.323486 33.57834 -3.0939941 71.60538 -36.669556 84.93588l-243.16815 96.54498c-33.57553 13.330444 -71.594696 -3.0836792 -84.91818 -36.661926z" fill-rule="evenodd"/><path stroke="#000000" stroke-width="16.0" stroke-linejoin="round" stroke-linecap="butt" d="m164.26582 230.41573l0 0c-13.323486 -33.578293 3.0940247 -71.60538 36.669556 -84.93585l243.16817 -96.54497l0 0c16.123535 -6.40152 34.128357 -6.135273 50.05362 0.74017334c15.925232 6.8754425 28.46637 19.796886 34.864563 35.921757l167.34192 421.74078c13.323486 33.57834 -3.0939941 71.60538 -36.669556 84.93588l-243.16815 96.54498c-33.57553 13.330444 -71.594696 -3.0836792 -84.91818 -36.661926z" fill-rule="evenodd"/><path fill="#ffffff" d="m274.59552 145.88881l0 0c-7.5343018 -35.328026 14.99585 -70.08007 50.32248 -77.620865l255.8505 -54.613625l0 0c16.964417 -3.6212168 34.671326 -0.35475254 49.225403 9.080809c14.554016 9.435562 24.763062 24.267307 28.381165 41.232426l94.637146 443.75095c7.5343018 35.328003 -14.99585 70.08008 -50.32245 77.62085l-255.8505 54.613647c-35.32663 7.5407715 -70.072266 -14.9852295 -77.60657 -50.313232z" fill-rule="evenodd"/><path stroke="#000000" stroke-width="16.0" stroke-linejoin="round" stroke-linecap="butt" d="m274.59552 145.88881l0 0c-7.5343018 -35.328026 14.99585 -70.08007 50.32248 -77.620865l255.8505 -54.613625l0 0c16.964417 -3.6212168 34.671326 -0.35475254 49.225403 9.080809c14.554016 9.435562 24.763062 24.267307 28.381165 41.232426l94.637146 443.75095c7.5343018 35.328003 -14.99585 70.08008 -50.32245 77.62085l-255.8505 54.613647c-35.32663 7.5407715 -70.072266 -14.9852295 -77.60657 -50.313232z" fill-rule="evenodd"/><path fill="#ffffff" d="m413.66946 99.92948l0 0c0 -36.12681 29.28656 -65.413376 65.41339 -65.413376l261.64566 0l0 0c17.348694 0 33.986877 6.8917465 46.254272 19.159138c12.267395 12.267387 19.159119 28.90554 19.159119 46.254242l0 453.7087c0 36.12677 -29.28656 65.41333 -65.41339 65.41333l-261.64566 0c-36.12683 0 -65.41339 -29.28656 -65.41339 -65.41333z" fill-rule="evenodd"/><path stroke="#000000" stroke-width="16.0" stroke-linejoin="round" stroke-linecap="butt" d="m413.66946 99.92948l0 0c0 -36.12681 29.28656 -65.413376 65.41339 -65.413376l261.64566 0l0 0c17.348694 0 33.986877 6.8917465 46.254272 19.159138c12.267395 12.267387 19.159119 28.90554 19.159119 46.254242l0 453.7087c0 36.12677 -29.28656 65.41333 -65.41339 65.41333l-261.64566 0c-36.12683 0 -65.41339 -29.28656 -65.41339 -65.41333z" fill-rule="evenodd"/></g></svg>